<?xml version="1.0" encoding="utf-8"?>
<!-- Generator: Adobe Illustrator 21.1.0, SVG Export Plug-In . SVG Version: 6.00 Build 0)  -->
<svg version="1.1" id="Layer_1" xmlns="http://www.w3.org/2000/svg" xmlns:xlink="http://www.w3.org/1999/xlink" x="0px" y="0px"
	 viewBox="0 0 1042 202.2" style="enable-background:new 0 0 1042 202.2;" xml:space="preserve">
<style type="text/css">
	.st0{fill:#F9F9F9;}
	.st1{fill:#2B2B2B;}
	.st2{fill:none;}
	.st3{font-family:'MyriadPro-Regular';}
	.st4{font-size:20px;}
	.st5{font-size:12px;}
</style>
<g>
	<polygon class="st0" points="434.5,99.8 377.6,200.9 261.6,202.2 202.5,102.3 259.4,1.2 375.4,0 	"/>
</g>
<g>
	<polygon class="st0" points="637,99.8 580.1,200.9 464.1,202.2 405,102.3 461.9,1.2 577.9,0 	"/>
</g>
<g>
	<polygon class="st0" points="839.5,99.8 782.6,200.9 666.6,202.2 607.5,102.3 664.4,1.2 780.4,0 	"/>
</g>
<g>
	<polygon class="st0" points="1042,99.8 985.1,200.9 869.1,202.2 810,102.3 866.9,1.2 982.9,0 	"/>
</g>
<g>
	<polygon class="st0" points="232,99.8 175.1,200.9 59.1,202.2 0,102.3 56.9,1.2 172.9,0 	"/>
</g>
<g>
	<g>
		<circle class="st1" cx="111.3" cy="27.5" r="11.2"/>
		<path class="st1" d="M112.3,44.3c-7.6-0.3-23.4,3.5-23.4,11.2v5.6h26.7C108.7,53.4,112.2,44.6,112.3,44.3z"/>
		<path class="st1" d="M137.7,55.5c1-1.7,1.6-3.6,1.6-5.7c0-6.2-5-11.2-11.2-11.2c-6.2,0-11.2,5-11.2,11.2c0,6.2,5,11.2,11.2,11.2
			c2.1,0,4-0.6,5.7-1.6l7.2,7.2l3.9-3.9L137.7,55.5z M128.1,55.5c-3.1,0-5.6-2.5-5.6-5.6c0-3.1,2.5-5.6,5.6-5.6s5.6,2.5,5.6,5.6
			C133.7,53,131.2,55.5,128.1,55.5z"/>
	</g>
</g>
<rect x="74.5" y="80" class="st2" width="85.5" height="24.1"/>
<text transform="matrix(1 0 0 1 74.4848 94.1788)" class="st1 st3 st4">Research</text>
<rect x="289.5" y="80" class="st2" width="85.5" height="24.1"/>
<text transform="matrix(1 0 0 1 289.4848 94.1788)" class="st1 st3 st4">Define</text>
<rect x="59.9" y="106.4" class="st2" width="125" height="69.6"/>
<text transform="matrix(1 0 0 1 59.9438 114.9679)"><tspan x="0" y="0" class="st1 st3 st5">Interview users to get a </tspan><tspan x="0" y="14.4" class="st1 st3 st5">better understanding of </tspan><tspan x="0" y="28.8" class="st1 st3 st5">the problem we are </tspan><tspan x="0" y="43.2" class="st1 st3 st5">trying to solve.</tspan></text>
<rect x="690.5" y="80" class="st2" width="85.5" height="24.1"/>
<text transform="matrix(1 0 0 1 690.4848 94.1788)" class="st1 st3 st4">Design</text>
<rect x="670.9" y="108.4" class="st2" width="125" height="69.6"/>
<text transform="matrix(1 0 0 1 670.9438 116.9679)"><tspan x="0" y="0" class="st1 st3 st5">Create detailed designs, </tspan><tspan x="0" y="14.4" class="st1 st3 st5">style guide, stakeholder </tspan><tspan x="0" y="28.8" class="st1 st3 st5">reviews, and gather user </tspan><tspan x="0" y="43.2" class="st1 st3 st5">feedback. </tspan></text>
<rect x="871.9" y="108.4" class="st2" width="125" height="69.6"/>
<text transform="matrix(1 0 0 1 871.9438 116.9679)"><tspan x="0" y="0" class="st1 st3 st5">Live prototype is created </tspan><tspan x="0" y="14.4" class="st1 st3 st5">and begin user testing. </tspan><tspan x="0" y="28.8" class="st1 st3 st5">Gather user feedback.</tspan></text>
<rect x="492.5" y="80" class="st2" width="85.5" height="24.1"/>
<text transform="matrix(1 0 0 1 492.4848 94.1788)" class="st1 st3 st4">Ideate</text>
<rect x="910.5" y="80" class="st2" width="85.5" height="24.1"/>
<text transform="matrix(1 0 0 1 910.4848 94.1788)" class="st1 st3 st4">Test</text>
<rect x="463.9" y="108.4" class="st2" width="131" height="69.6"/>
<text transform="matrix(1 0 0 1 463.9482 116.9516)"><tspan x="0" y="0" class="st1 st3 st5">Create sketches, low </tspan><tspan x="0" y="14.4" class="st1 st3 st5">fidelity wireframes, user </tspan><tspan x="0" y="28.8" class="st1 st3 st5">flows, and gather user </tspan><tspan x="0" y="43.2" class="st1 st3 st5">feedback. </tspan></text>
<rect x="262.9" y="108.4" class="st2" width="125" height="69.6"/>
<text transform="matrix(1 0 0 1 262.9438 116.9679)"><tspan x="0" y="0" class="st1 st3 st5">Create personas, role </tspan><tspan x="0" y="14.4" class="st1 st3 st5">objectives, decisions, </tspan><tspan x="0" y="28.8" class="st1 st3 st5">and understand user </tspan><tspan x="0" y="43.2" class="st1 st3 st5">pain points. </tspan></text>
<path class="st1" d="M336.4,21.9h-10.2c-1-2.9-3.7-5-6.9-5s-5.9,2.1-6.9,5h-10.2c-2.7,0-4.9,2.2-4.9,5v34.8c0,2.7,2.2,5,4.9,5h34.2
	c2.7,0,4.9-2.2,4.9-5V26.9C341.3,24.1,339.1,21.9,336.4,21.9z M319.3,21.9c1.3,0,2.4,1.1,2.4,2.5s-1.1,2.5-2.4,2.5s-2.4-1.1-2.4-2.5
	C316.8,23,317.9,21.9,319.3,21.9z M314.4,56.7l-9.8-10l3.4-3.5l6.3,6.4l16.1-16.4l3.4,3.5L314.4,56.7z"/>
<g>
	<path class="st1" d="M521.6,15.1c-1.2,0-2.5,0.1-3.8,0.4c-7.5,1.4-13.5,7.5-14.9,15c-1.3,7.1,1.3,13.6,6,17.8c1.2,1,1.8,2.5,1.8,4
		v6.3c0,3,2.4,5.4,5.4,5.4h0.8c0.9,1.6,2.7,2.7,4.7,2.7c2,0,3.7-1.1,4.7-2.7h0.8c3,0,5.4-2.4,5.4-5.4v-6.3c0-1.5,0.6-3,1.7-4
		c3.9-3.5,6.4-8.5,6.4-14.2C540.6,23.6,532.1,15.1,521.6,15.1z M527,58.5h-10.9v-2.7H527V58.5z M527,53.1h-10.9v-2.7H527V53.1z
		 M522.9,37.9v7h-2.7v-7l-5-4.9l1.9-1.9l4.4,4.4l4.4-4.4l1.9,1.9L522.9,37.9z"/>
</g>
<g>
	<g>
		<path class="st1" d="M733.1,46.1l3.4-3.4l-8.1-8.1l-3.4,3.4l-9-8.9c-1.7-1.7-4.4-1.7-6.1,0l-4.1,4.1c-1.7,1.7-1.7,4.4,0,6.1
			l8.9,8.9l-10.3,10.3v8.1h8.1l10.3-10.3l8.9,8.9c2.1,2.1,4.8,1.3,6.1,0l4.1-4.1c1.7-1.7,1.7-4.4,0-6.1L733.1,46.1z M717.8,45.2
			l-9-8.9l4.1-4.1l0,0l2.8,2.8l-2.6,2.6l3.1,3.1l2.6-2.6l3.1,3.1L717.8,45.2z M734.8,62.3l-8.9-8.9l4.1-4.1l3.1,3.1l-2.6,2.6
			l3.1,3.1l2.6-2.6l2.8,2.8L734.8,62.3z"/>
		<path class="st1" d="M742.7,36.4c0.8-0.8,0.8-2.2,0-3.1l-5.1-5.1c-1-1-2.4-0.6-3.1,0l-4,4l8.1,8.1L742.7,36.4z"/>
	</g>
</g>
<g>
	<g>
		<g>
			<path class="st1" d="M918.6,36.9v-8.7c0-3.2,2.6-5.8,5.8-5.8c3.2,0,5.8,2.6,5.8,5.8v8.7c2.8-1.9,4.7-5.1,4.7-8.7
				c0-5.8-4.7-10.5-10.5-10.5s-10.5,4.7-10.5,10.5C913.9,31.8,915.8,35,918.6,36.9z M941.6,47.7L931,42.4c-0.4-0.2-0.8-0.3-1.3-0.3
				h-1.8v-14c0-1.9-1.6-3.5-3.5-3.5c-1.9,0-3.5,1.6-3.5,3.5v25.1c-8.4-1.8-8.3-1.8-8.6-1.8c-0.7,0-1.4,0.3-1.8,0.8l-1.8,1.9
				l11.5,11.5c0.6,0.6,1.5,1,2.5,1h15.8c1.8,0,3.1-1.3,3.4-3l1.8-12.3c0-0.2,0-0.3,0-0.5C943.7,49.5,942.8,48.2,941.6,47.7z"/>
		</g>
	</g>
</g>
</svg>
